<svg width="56" height="37" viewBox="0 0 56 37" fill="none" xmlns="http://www.w3.org/2000/svg">
<path d="M1.24992 31.0367H42.3228L43.0727 34.3589C43.1042 34.4883 43.1695 34.6071 43.2621 34.7029C43.3547 34.7988 43.4711 34.8682 43.5994 34.9041C43.7277 34.94 43.8633 34.9411 43.9922 34.9072C44.121 34.8733 44.2385 34.8057 44.3326 34.7113L46.4324 32.6116L50.0994 36.2712C50.24 36.4108 50.43 36.4892 50.6281 36.4892C50.8263 36.4892 51.0163 36.4108 51.1568 36.2712L55.5213 31.9516C55.5916 31.8819 55.6474 31.799 55.6855 31.7076C55.7236 31.6162 55.7432 31.5182 55.7432 31.4192C55.7432 31.3202 55.7236 31.2222 55.6855 31.1308C55.6474 31.0394 55.5916 30.9565 55.5213 30.8868L51.8542 27.2272L53.9615 25.1199C54.0579 25.0237 54.1263 24.9031 54.1593 24.771C54.1923 24.6388 54.1888 24.5002 54.149 24.37C54.1126 24.2417 54.0428 24.1255 53.9465 24.0332C53.8503 23.9409 53.7312 23.876 53.6016 23.845L49.1695 22.8027V5.09715C49.1695 4.89826 49.0905 4.70751 48.9499 4.56688C48.8093 4.42624 48.6185 4.34723 48.4196 4.34723H45.4575V1.72252C45.461 1.54708 45.4029 1.37596 45.2933 1.23894C45.1837 1.10191 45.0295 1.00767 44.8575 0.972608C38.2051 -0.366292 31.3241 -0.0286837 24.8348 1.955C18.3499 -0.0274445 11.4729 -0.359958 4.82702 0.987607C4.6537 1.02112 4.49775 1.1147 4.38664 1.25187C4.27553 1.38905 4.21637 1.56102 4.21958 1.73752V4.36223H1.24992C1.05103 4.36223 0.860283 4.44124 0.719646 4.58187C0.57901 4.72251 0.5 4.91325 0.5 5.11214V30.2868C0.5 30.4857 0.57901 30.6765 0.719646 30.8171C0.860283 30.9577 1.05103 31.0367 1.24992 31.0367ZM45.495 5.84706H47.7072V22.4952L45.495 21.9703V5.84706ZM51.9892 25.0449L50.2644 26.7022C50.1248 26.8427 50.0464 27.0328 50.0464 27.2309C50.0464 27.429 50.1248 27.6191 50.2644 27.7596L53.9315 31.4267L50.6994 34.6588L47.0323 30.9992C46.9628 30.9284 46.88 30.872 46.7886 30.8334C46.6972 30.7948 46.5991 30.7747 46.4998 30.7743C46.302 30.7771 46.1134 30.858 45.9749 30.9992L44.2876 32.7016L41.9254 22.6827L51.9892 25.0449ZM25.5847 3.25985C31.5553 1.53466 37.8452 1.22145 43.9576 2.34496V21.6178L41.093 20.9429C40.9689 20.9141 40.8396 20.9174 40.7172 20.9525C40.5948 20.9875 40.4834 21.0531 40.3933 21.1431C40.3033 21.2332 40.2377 21.3446 40.2026 21.467C40.1676 21.5894 40.1643 21.7187 40.1931 21.8428L40.793 24.385C35.687 23.8607 30.5281 24.3008 25.5847 25.6823V3.25985ZM5.71192 2.34496C11.8246 1.22584 18.1136 1.539 24.0849 3.25985V25.6823C20.4938 24.6671 16.7778 24.1622 13.0461 24.1825C10.588 24.1853 8.13451 24.3961 5.71192 24.8124V2.34496ZM1.99983 5.84706H4.21208V25.7198C4.21282 25.8306 4.23808 25.9398 4.28605 26.0397C4.33403 26.1395 4.40353 26.2275 4.48955 26.2973C4.57517 26.368 4.67542 26.4188 4.78306 26.446C4.8907 26.4732 5.00305 26.4762 5.11198 26.4548C11.5898 25.1401 18.294 25.4727 24.6098 27.4221C24.6862 27.4521 24.7677 27.4674 24.8498 27.4671C24.9251 27.4746 25.0011 27.4696 25.0747 27.4521C30.2614 25.8276 35.7326 25.3165 41.1305 25.9523L41.9779 29.5519H1.99983V5.84706Z" fill="white"/>
</svg>
