<svg width="45" height="45" viewBox="0 0 45 45" fill="none" xmlns="http://www.w3.org/2000/svg">
<path d="M38.8806 44.9055H5.36431C3.96077 44.9055 2.61472 44.348 1.62227 43.3555C0.629819 42.3631 0.0722656 41.017 0.0722656 39.6135V6.09725C0.0722656 4.69371 0.629819 3.34766 1.62227 2.35521C2.61472 1.36276 3.96077 0.805206 5.36431 0.805206H38.8806C40.2841 0.805206 41.6302 1.36276 42.6226 2.35521C43.6151 3.34766 44.1726 4.69371 44.1726 6.09725V39.6135C44.1726 41.017 43.6151 42.3631 42.6226 43.3555C41.6302 44.348 40.2841 44.9055 38.8806 44.9055ZM5.36431 2.56922C4.42862 2.56922 3.53125 2.94092 2.86961 3.60256C2.20798 4.26419 1.83628 5.16156 1.83628 6.09725V39.6135C1.83628 40.5492 2.20798 41.4466 2.86961 42.1082C3.53125 42.7698 4.42862 43.1415 5.36431 43.1415H38.8806C39.8163 43.1415 40.7136 42.7698 41.3753 42.1082C42.0369 41.4466 42.4086 40.5492 42.4086 39.6135V6.09725C42.4086 5.16156 42.0369 4.26419 41.3753 3.60256C40.7136 2.94092 39.8163 2.56922 38.8806 2.56922H5.36431Z" fill="white"/>
<path d="M9.77463 12.2713H4.48259C4.24867 12.2713 4.02433 12.1784 3.85892 12.013C3.69351 11.8475 3.60059 11.6232 3.60059 11.3893V7.86125C3.60059 7.62733 3.69351 7.40299 3.85892 7.23758C4.02433 7.07217 4.24867 6.97925 4.48259 6.97925H9.77463C10.0086 6.97925 10.2329 7.07217 10.3983 7.23758C10.5637 7.40299 10.6566 7.62733 10.6566 7.86125V11.3893C10.6566 11.6232 10.5637 11.8475 10.3983 12.013C10.2329 12.1784 10.0086 12.2713 9.77463 12.2713ZM5.3646 10.5073H8.89263V8.74326H5.3646V10.5073Z" fill="white"/>
<path d="M9.77463 21.0914H4.48259C4.24867 21.0914 4.02433 20.9985 3.85892 20.8331C3.69351 20.6676 3.60059 20.4433 3.60059 20.2094V16.6814C3.60059 16.4474 3.69351 16.2231 3.85892 16.0577C4.02433 15.8923 4.24867 15.7993 4.48259 15.7993H9.77463C10.0086 15.7993 10.2329 15.8923 10.3983 16.0577C10.5637 16.2231 10.6566 16.4474 10.6566 16.6814V20.2094C10.6566 20.4433 10.5637 20.6676 10.3983 20.8331C10.2329 20.9985 10.0086 21.0914 9.77463 21.0914ZM5.3646 19.3274H8.89263V17.5634H5.3646V19.3274Z" fill="white"/>
<path d="M9.77463 29.9114H4.48259C4.24867 29.9114 4.02433 29.8185 3.85892 29.6531C3.69351 29.4877 3.60059 29.2633 3.60059 29.0294V25.5014C3.60059 25.2675 3.69351 25.0431 3.85892 24.8777C4.02433 24.7123 4.24867 24.6194 4.48259 24.6194H9.77463C10.0086 24.6194 10.2329 24.7123 10.3983 24.8777C10.5637 25.0431 10.6566 25.2675 10.6566 25.5014V29.0294C10.6566 29.2633 10.5637 29.4877 10.3983 29.6531C10.2329 29.8185 10.0086 29.9114 9.77463 29.9114ZM5.3646 28.1474H8.89263V26.3834H5.3646V28.1474Z" fill="white"/>
<path d="M9.77463 38.7315H4.48259C4.24867 38.7315 4.02433 38.6386 3.85892 38.4732C3.69351 38.3078 3.60059 38.0834 3.60059 37.8495V34.3215C3.60059 34.0875 3.69351 33.8632 3.85892 33.6978C4.02433 33.5324 4.24867 33.4395 4.48259 33.4395H9.77463C10.0086 33.4395 10.2329 33.5324 10.3983 33.6978C10.5637 33.8632 10.6566 34.0875 10.6566 34.3215V37.8495C10.6566 38.0834 10.5637 38.3078 10.3983 38.4732C10.2329 38.6386 10.0086 38.7315 9.77463 38.7315ZM5.3646 36.9675H8.89263V35.2035H5.3646V36.9675Z" fill="white"/>
<path d="M39.7629 12.2713H34.4709C34.237 12.2713 34.0126 12.1784 33.8472 12.013C33.6818 11.8475 33.5889 11.6232 33.5889 11.3893V7.86125C33.5889 7.62733 33.6818 7.40299 33.8472 7.23758C34.0126 7.07217 34.237 6.97925 34.4709 6.97925H39.7629C39.9968 6.97925 40.2212 7.07217 40.3866 7.23758C40.552 7.40299 40.6449 7.62733 40.6449 7.86125V11.3893C40.6449 11.6232 40.552 11.8475 40.3866 12.013C40.2212 12.1784 39.9968 12.2713 39.7629 12.2713ZM35.3529 10.5073H38.8809V8.74326H35.3529V10.5073Z" fill="white"/>
<path d="M39.7629 21.0914H34.4709C34.237 21.0914 34.0126 20.9985 33.8472 20.8331C33.6818 20.6676 33.5889 20.4433 33.5889 20.2094V16.6814C33.5889 16.4474 33.6818 16.2231 33.8472 16.0577C34.0126 15.8923 34.237 15.7993 34.4709 15.7993H39.7629C39.9968 15.7993 40.2212 15.8923 40.3866 16.0577C40.552 16.2231 40.6449 16.4474 40.6449 16.6814V20.2094C40.6449 20.4433 40.552 20.6676 40.3866 20.8331C40.2212 20.9985 39.9968 21.0914 39.7629 21.0914ZM35.3529 19.3274H38.8809V17.5634H35.3529V19.3274Z" fill="white"/>
<path d="M39.7629 29.9114H34.4709C34.237 29.9114 34.0126 29.8185 33.8472 29.6531C33.6818 29.4877 33.5889 29.2633 33.5889 29.0294V25.5014C33.5889 25.2675 33.6818 25.0431 33.8472 24.8777C34.0126 24.7123 34.237 24.6194 34.4709 24.6194H39.7629C39.9968 24.6194 40.2212 24.7123 40.3866 24.8777C40.552 25.0431 40.6449 25.2675 40.6449 25.5014V29.0294C40.6449 29.2633 40.552 29.4877 40.3866 29.6531C40.2212 29.8185 39.9968 29.9114 39.7629 29.9114ZM35.3529 28.1474H38.8809V26.3834H35.3529V28.1474Z" fill="white"/>
<path d="M39.7629 38.7315H34.4709C34.237 38.7315 34.0126 38.6386 33.8472 38.4732C33.6818 38.3078 33.5889 38.0834 33.5889 37.8495V34.3215C33.5889 34.0875 33.6818 33.8632 33.8472 33.6978C34.0126 33.5324 34.237 33.4395 34.4709 33.4395H39.7629C39.9968 33.4395 40.2212 33.5324 40.3866 33.6978C40.552 33.8632 40.6449 34.0875 40.6449 34.3215V37.8495C40.6449 38.0834 40.552 38.3078 40.3866 38.4732C40.2212 38.6386 39.9968 38.7315 39.7629 38.7315ZM35.3529 36.9675H38.8809V35.2035H35.3529V36.9675Z" fill="white"/>
<path d="M15.0676 34.3215H14.7148C14.5454 34.2483 14.4032 34.1238 14.3083 33.9656C14.2134 33.8074 14.1705 33.6234 14.1856 33.4395V13.1533C14.1856 12.9895 14.2312 12.8289 14.3173 12.6896C14.4034 12.5503 14.5266 12.4377 14.6732 12.3644C14.8197 12.2912 14.9837 12.2602 15.1468 12.2749C15.3099 12.2896 15.4658 12.3494 15.5968 12.4477L29.7089 22.1498C29.8185 22.2319 29.9074 22.3385 29.9686 22.4609C30.0298 22.5834 30.0617 22.7185 30.0617 22.8554C30.0617 22.9923 30.0298 23.1274 29.9686 23.2498C29.9074 23.3723 29.8185 23.4788 29.7089 23.561L15.5968 34.1451L15.0676 34.3215ZM15.9496 14.8291V31.6755L27.6803 22.8554L15.9496 14.8291Z" fill="white"/>
</svg>
