<svg width="38" height="47" viewBox="0 0 38 47" fill="none" xmlns="http://www.w3.org/2000/svg">
<path d="M37.9622 46.1687H0.28125V34.8207L0.350219 34.6567C2.48155 29.6269 8.29098 27.8918 11.1221 27.3324C8.99749 25.2566 7.67614 22.3633 7.67614 19.1671C7.67614 17.1855 8.19677 15.2274 9.18169 13.5057L9.57112 12.8236L18.7802 16.8104L28.6606 12.811L29.0416 13.4712C30.0391 15.2014 30.5665 17.1712 30.5665 19.1671C30.5665 22.3633 29.2468 25.2566 27.1214 27.3324C29.9508 27.8918 35.7611 29.6261 37.8924 34.6567L37.9622 34.8207V46.1687ZM19.4565 44.4159H36.2094V35.1824C34.1319 30.5748 27.9953 29.2375 26.0086 28.9213L19.4565 44.4159ZM2.03409 44.4159H18.787L12.234 28.9213C10.2482 29.2375 4.11075 30.5748 2.03409 35.1824V44.4159ZM14.4183 29.5866L19.1217 40.7092L23.8251 29.5874C22.3894 30.2359 20.7963 30.5976 19.1217 30.5976C17.4471 30.5976 15.8541 30.235 14.4183 29.5866ZM10.3424 15.0676C9.7427 16.3478 9.42898 17.7507 9.42898 19.1671C9.42898 24.5038 13.7766 28.8439 19.1209 28.8439C24.4652 28.8439 28.8136 24.5038 28.8136 19.1671C28.8136 17.7305 28.4907 16.3116 27.8758 15.018L18.7584 18.7095L10.3424 15.0676ZM3.79786 23.741C2.05175 23.741 0.631986 22.322 0.631986 20.5785C0.631986 19.3664 1.46719 18.0241 2.86677 17.5716L2.85331 7.75347L18.7592 0.805206L37.3213 8.46336L18.7533 15.7203L4.85175 9.77042V17.606C6.08395 18.0434 6.96373 19.2226 6.96373 20.5785C6.96373 22.322 5.54397 23.741 3.79786 23.741ZM3.75833 19.1721C2.78939 19.2478 2.38482 20.1201 2.38482 20.5785C2.38482 21.3565 3.01901 21.989 3.79786 21.989C4.57755 21.989 5.21174 21.3565 5.21174 20.5785C5.21174 19.8518 4.63979 19.2394 3.90888 19.1831L3.75833 19.1721ZM5.92667 8.32458L18.7853 13.8262L32.6204 8.41962L18.7786 2.7086L5.92667 8.32458Z" fill="white"/>
</svg>
