<svg width="39" height="44" viewBox="0 0 39 44" fill="none" xmlns="http://www.w3.org/2000/svg">
<path d="M31.516 10.2386L33.2062 7.38113L36.1298 9.04612L37.3359 6.98629L29.4142 2.47496L28.2081 4.53479L31.1172 6.19185L29.538 8.86535C26.9489 7.27806 23.9497 6.29017 20.7334 6.09037V3.18377H24.1025V0.805206H14.9537V3.18377H18.3228V6.09037C15.1065 6.29017 12.1089 7.27806 9.5182 8.86535L7.93739 6.19185L10.8465 4.53479L9.64042 2.47496L1.71869 6.98471L2.9248 9.04454L5.84841 7.37955L7.53857 10.237C3.25125 13.6796 0.50293 18.9203 0.50293 24.7843C0.50293 35.1262 9.03736 43.5416 19.5273 43.5416C30.0172 43.5416 38.5517 35.1262 38.5517 24.7843C38.5517 18.9219 35.8033 13.6811 31.516 10.2386ZM19.5273 41.1646C10.3689 41.1646 2.91515 33.818 2.91515 24.7858C2.91515 15.7552 10.3689 8.40708 19.5273 8.40708C28.6857 8.40708 36.1394 15.7537 36.1394 24.7858C36.1394 33.818 28.6857 41.1646 19.5273 41.1646Z" fill="white"/>
<path d="M19.5274 10.5161H18.3213V39.0572H19.5274C27.5086 39.0572 34.0007 32.6541 34.0007 24.7859C34.0007 16.9176 27.5086 10.5161 19.5274 10.5161ZM20.7335 36.62V12.9533C26.8203 13.5511 31.5885 18.6301 31.5885 24.7859C31.5885 30.9416 26.8203 36.0206 20.7335 36.62Z" fill="white"/>
</svg>
