<svg width="52" height="48" viewBox="0 0 52 48" fill="none" xmlns="http://www.w3.org/2000/svg">
<path d="M17.2729 15.8634L13.0093 12.8547C12.6178 12.5786 12.0605 12.8671 12.0605 13.3463V19.3638C12.0605 19.8421 12.6152 20.1334 13.0093 19.8554L17.2729 16.8467C17.6073 16.6108 17.6073 16.0993 17.2729 15.8634Z" fill="white"/>
<path d="M49.0704 24.7111C48.7381 24.7111 48.4686 24.4418 48.4686 24.1094V3.91422C48.4686 2.91881 47.6588 2.10898 46.6634 2.10898H5.58295C4.58754 2.10898 3.77771 2.91881 3.77771 3.91422V24.1094C3.77771 24.4418 3.50825 24.7111 3.17596 24.7111C2.84368 24.7111 2.57422 24.4418 2.57422 24.1094V3.91422C2.57422 2.25521 3.92393 0.905491 5.58295 0.905491H46.6634C48.3224 0.905491 49.6721 2.25521 49.6721 3.91422V24.1094C49.6721 24.4417 49.4027 24.7111 49.0704 24.7111Z" fill="white"/>
<path d="M39.545 46.9272C39.977 46.9272 40.3272 46.577 40.3272 46.145C40.3272 45.7129 39.977 45.3627 39.545 45.3627C39.1129 45.3627 38.7627 45.7129 38.7627 46.145C38.7627 46.577 39.1129 46.9272 39.545 46.9272Z" fill="white"/>
<path d="M3.17582 28.2613C3.60786 28.2613 3.95809 27.9111 3.95809 27.4791C3.95809 27.047 3.60786 26.6968 3.17582 26.6968C2.74379 26.6968 2.39355 27.047 2.39355 27.4791C2.39355 27.9111 2.74379 28.2613 3.17582 28.2613Z" fill="white"/>
<path d="M49.0694 28.2613C49.5014 28.2613 49.8516 27.9111 49.8516 27.4791C49.8516 27.047 49.5014 26.6968 49.0694 26.6968C48.6373 26.6968 48.2871 27.047 48.2871 27.4791C48.2871 27.9111 48.6373 28.2613 49.0694 28.2613Z" fill="white"/>
<path d="M51.3964 30.4879H41.5839C41.5482 28.7354 40.1125 27.3204 38.3515 27.3204C37.5818 27.3204 36.8738 27.5909 36.3179 28.0417C36.2411 26.2851 34.788 24.88 33.0128 24.88C32.1639 24.88 31.3886 25.2014 30.8024 25.7289C30.4459 24.3994 29.2304 23.4176 27.7899 23.4176C27.0688 23.4176 26.404 23.6637 25.8752 24.0764V22.3359H43.475C43.8073 22.3359 44.0768 22.0666 44.0768 21.7342V11.1026C44.0768 10.7701 43.8073 10.5008 43.475 10.5008H8.77129C8.43901 10.5008 8.16954 10.7701 8.16954 11.1026V21.7342C8.16954 22.0666 8.43901 22.3359 8.77129 22.3359H19.4115V31.3385L18.965 30.5309C18.1009 28.9679 16.13 28.3921 14.5719 29.2482C14.0285 29.5464 13.6026 29.9811 13.313 30.4881H0.849792C0.517509 30.4881 0.248047 30.7575 0.248047 31.0899V35.1252C0.248047 36.7842 1.59776 38.1339 3.25677 38.1339L15.2089 38.1312L20.4159 46.8935C20.5276 47.0857 20.7293 47.1928 20.9367 47.1928C21.3929 47.1928 21.6852 46.6822 21.4562 46.2884L14.2744 33.0122C13.8113 32.0171 14.1963 30.8273 15.1509 30.3032C16.1292 29.7659 17.3677 30.1295 17.9116 31.1131L19.4865 33.9618C19.7803 34.4934 20.6148 34.2781 20.6148 33.6707V17.3757C20.6148 16.2573 21.5248 15.3474 22.6432 15.3474C23.7616 15.3474 24.6716 16.2573 24.6716 17.3757V32.3586C24.6716 32.691 24.941 32.9604 25.2733 32.9604C25.6056 32.9604 25.8751 32.691 25.8751 32.3586V26.5358C25.8751 25.4801 26.734 24.621 27.7898 24.621C28.8456 24.621 29.7046 25.4801 29.7046 26.5358V33.0321C29.7046 33.3645 29.974 33.6338 30.3063 33.6338C30.6386 33.6338 30.9081 33.3645 30.9081 33.0321V28.188C30.9081 27.0275 31.8522 26.0835 33.0127 26.0835C34.1733 26.0835 35.1174 27.0276 35.1174 28.188V34.3527C35.1174 34.6851 35.3869 34.9544 35.7191 34.9544C36.0514 34.9544 36.3209 34.6851 36.3209 34.3527V30.5545C36.3209 29.4347 37.2318 28.5239 38.3514 28.5239C39.471 28.5239 40.3819 29.4347 40.3819 30.5545V43.0147C40.3819 43.3471 40.6514 43.6164 40.9837 43.6164C41.316 43.6164 41.5854 43.3471 41.5854 43.0147V38.1337H48.9894C50.6484 38.1337 51.9982 36.784 51.9982 35.125V31.0896C51.9982 30.7572 51.7287 30.4879 51.3964 30.4879ZM20.1691 15.2996C19.6967 15.8616 19.4115 16.5859 19.4115 17.3757V21.1323H9.37304V11.7042H20.1692V15.2996H20.1691ZM22.6432 14.1439C22.1923 14.1439 21.7629 14.237 21.3726 14.4046V11.7042H42.8732V21.1323H25.8751V17.3757C25.8751 15.5937 24.4253 14.1439 22.6432 14.1439Z" fill="white"/>
</svg>
